<svg width="36" height="36" viewBox="0 0 36 36" fill="none" xmlns="http://www.w3.org/2000/svg">
<rect width="36" height="36" rx="8" fill="#00A4F5"/>
<path d="M9 13.5C12 11.5 15 11.5 18 13.5C21 15.5 24 15.5 27 13.5" stroke="white" stroke-width="2" stroke-linecap="round" stroke-linejoin="round"/>
<path d="M9 23.5C12 21.5 15 21.5 18 23.5C21 25.5 24 25.5 27 23.5" stroke="white" stroke-width="2" stroke-linecap="round" stroke-linejoin="round"/>
<path d="M9 18.5C12 16.5 15 16.5 18 18.5C21 20.5 24 20.5 27 18.5" stroke="white" stroke-width="2" stroke-linecap="round" stroke-linejoin="round"/>
<path d="M19 10L15 18H21L17 26" stroke="#00A4F5" stroke-width="6" stroke-linecap="round" stroke-linejoin="round"/>
<path d="M19 10L15 18H21L17 26" stroke="white" stroke-width="2" stroke-linecap="round" stroke-linejoin="round"/>
</svg>
